<svg width="900" height="640" viewBox="0 0 900 640" fill="none" xmlns="http://www.w3.org/2000/svg">
  <defs>
    <linearGradient id="bgBlood" x1="0" y1="0" x2="900" y2="640" gradientUnits="userSpaceOnUse">
      <stop stop-color="#F8FBFF"/>
      <stop offset="1" stop-color="#EAF5FF"/>
    </linearGradient>
  </defs>
  <rect width="900" height="640" fill="url(#bgBlood)"/>
  <rect x="80" y="110" width="740" height="420" rx="28" fill="#FFFFFF" stroke="#DDEAFB" stroke-width="2"/>
  <g opacity="0.95">
    <rect x="180" y="215" width="82" height="150" rx="20" fill="#FFF7E8" stroke="#E5D1A7" stroke-width="4"/>
    <rect x="290" y="215" width="82" height="150" rx="20" fill="#EAF4FF" stroke="#A9C7EA" stroke-width="4"/>
    <rect x="400" y="215" width="82" height="150" rx="20" fill="#E9FFF8" stroke="#A4D9C4" stroke-width="4"/>
    <rect x="510" y="215" width="82" height="150" rx="20" fill="#FDF0F2" stroke="#EAAEC3" stroke-width="4"/>
    <rect x="620" y="215" width="82" height="150" rx="20" fill="#EEF5FF" stroke="#B7CBEA" stroke-width="4"/>
    <rect x="118" y="190" width="28" height="205" rx="14" fill="#FFFFFF" stroke="#D7E5F6" stroke-width="4"/>
    <rect x="748" y="190" width="28" height="205" rx="14" fill="#FFFFFF" stroke="#D7E5F6" stroke-width="4"/>
    <rect x="168" y="166" width="104" height="52" rx="18" fill="#FFD7A8"/>
    <rect x="278" y="166" width="104" height="52" rx="18" fill="#BFE3FF"/>
    <rect x="388" y="166" width="104" height="52" rx="18" fill="#BFEFE1"/>
    <rect x="498" y="166" width="104" height="52" rx="18" fill="#FFC9D6"/>
    <rect x="608" y="166" width="104" height="52" rx="18" fill="#D7E7FF"/>
  </g>
  <ellipse cx="452" cy="495" rx="280" ry="38" fill="#E9F1F9"/>
</svg>
