<svg width="900" height="640" viewBox="0 0 900 640" fill="none" xmlns="http://www.w3.org/2000/svg">
  <defs>
    <linearGradient id="bgElisa" x1="0" y1="0" x2="900" y2="640" gradientUnits="userSpaceOnUse">
      <stop stop-color="#F7FBFF"/>
      <stop offset="1" stop-color="#ECF7FF"/>
    </linearGradient>
  </defs>
  <rect width="900" height="640" fill="url(#bgElisa)"/>
  <rect x="110" y="120" width="680" height="390" rx="30" fill="#FFFFFF" stroke="#DAEBFA" stroke-width="2"/>
  <g>
    <rect x="190" y="210" width="500" height="180" rx="20" fill="#EAF5FF"/>
    <rect x="220" y="238" width="440" height="128" rx="16" fill="#F7FBFF" stroke="#CFE1F8" stroke-width="4"/>
    <g opacity="0.9">
      <rect x="250" y="255" width="70" height="96" rx="10" fill="#CEE8FF"/>
      <rect x="340" y="255" width="70" height="96" rx="10" fill="#D9EEFF"/>
      <rect x="430" y="255" width="70" height="96" rx="10" fill="#CFE8FF"/>
      <rect x="520" y="255" width="70" height="96" rx="10" fill="#D1E9FF"/>
    </g>
    <rect x="290" y="170" width="280" height="44" rx="12" fill="#DDF3FF"/>
    <path d="M365 424H515" stroke="#9BBEE7" stroke-width="18" stroke-linecap="round"/>
    <path d="M402 424V490" stroke="#A4C8F3" stroke-width="14" stroke-linecap="round"/>
    <path d="M478 424V490" stroke="#A4C8F3" stroke-width="14" stroke-linecap="round"/>
  </g>
  <ellipse cx="450" cy="510" rx="300" ry="42" fill="#E7F1F9"/>
</svg>
