<svg width="900" height="640" viewBox="0 0 900 640" fill="none" xmlns="http://www.w3.org/2000/svg">
  <defs>
    <linearGradient id="bg" x1="96" y1="54" x2="820" y2="584" gradientUnits="userSpaceOnUse">
      <stop stop-color="#F7FAF2"/>
      <stop offset="1" stop-color="#EAF2DE"/>
    </linearGradient>
  </defs>
  <rect width="900" height="640" fill="url(#bg)"/>
  <rect x="100" y="94" width="700" height="452" rx="32" fill="white" stroke="#DCE6CC" stroke-width="3"/>
  <ellipse cx="450" cy="480" rx="260" ry="27" fill="#E9EFDF"/>
  <path d="M280 190h140v34l-15 17v167c0 20-16 36-36 36h-38c-20 0-36-16-36-36V241l-15-17v-34Z" fill="#F8FBF3" stroke="#B8C99A" stroke-width="4"/>
  <path d="M296 332h108v76c0 16-13 29-29 29h-50c-16 0-29-13-29-29v-76Z" fill="#D6E7B4"/>
  <path d="M305 190h90" stroke="#799553" stroke-width="18" stroke-linecap="round"/>
  <rect x="500" y="218" width="168" height="214" rx="18" fill="#F8FBF3" stroke="#B8C99A" stroke-width="4"/>
  <rect x="486" y="192" width="196" height="44" rx="12" fill="#799553"/>
  <rect x="528" y="274" width="112" height="104" rx="10" fill="#EDF4E1"/>
  <path d="M550 350v-25l17-16 17 13 18-29 17 12" stroke="#93AB68" stroke-width="8" stroke-linecap="round" stroke-linejoin="round"/>
  <circle cx="348" cy="360" r="13" fill="#A8C16F"/>
</svg>